<?xml version="1.0" standalone="no"?><!DOCTYPE svg PUBLIC "-//W3C//DTD SVG 1.1//EN" "http://www.w3.org/Graphics/SVG/1.1/DTD/svg11.dtd"><svg class="icon" width="200px" height="200.00px" viewBox="0 0 1024 1024" version="1.1" xmlns="http://www.w3.org/2000/svg"><path d="M524.925 840.479c-136.028 7.219-255.65-73.311-307.774-183.183-57.279-120.653-46.499-239.9 35.343-346.21 77.904-101.341 186.37-141.559 314.804-126.466 63.748 7.5 119.997 33.28 168.933 74.154 26.624 22.218 25.968 32.155-3.469 48.749-25.593 14.438-51.374 28.687-76.873 43.405-70.404 40.593-141.278 80.529-210.932 122.435-37.312 22.405-44.718 58.311-23.905 95.435 22.499 40.218 66.279 49.499 112.591 23.155 137.621-78.279 274.775-157.402 412.771-234.932 22.874-12.844 25.312-25.874 15.188-47.624-35.718-76.498-88.311-139.309-158.715-186.37-155.715-103.778-321.835-120.466-491.894-41.53-169.683 78.748-261.931 216.932-277.211 399.177-12.656 151.028 45.749 278.899 156.465 384.178 154.496 146.715 412.583 169.777 590.048 51.843 46.218-30.749 46.218-30.749 17.531-77.623-30.937-50.718-61.686-60.092-115.497-34.78-50.812 23.999-103.591 39.562-157.402 36.187z"  /><path fill="#808080" d="M991.976 625.891c-2.531-36.28-22.593-65.717-39.843-96.185-5.625-9.938-14.625-6.094-22.78-1.594-31.593 17.812-63.186 35.812-95.060 53.155-13.5 7.406-15.938 16.313-8.156 29.343 18.187 30.093 36.187 60.279 53.53 90.842 7.594 13.219 16.594 16.313 29.718 8.156 19.030-11.813 38.718-22.874 57.092-35.624 16.5-11.344 26.155-27.28 25.499-48.093z"  /></svg>