<?xml version="1.0" standalone="no"?><!DOCTYPE svg PUBLIC "-//W3C//DTD SVG 1.1//EN" "http://www.w3.org/Graphics/SVG/1.1/DTD/svg11.dtd"><svg class="icon" width="200px" height="200.00px" viewBox="0 0 1024 1024" version="1.1" xmlns="http://www.w3.org/2000/svg"><path d="M512.010666 1024C229.221891 1024 0 794.778109 0 511.968001 0 229.221891 229.221891 0 512.010666 0 794.756776 0 1023.978667 229.221891 1023.978667 511.968001 1024 794.778109 794.778109 1024 512.010666 1024L512.010666 1024zM512.010666 64.02C264.570488 64.02 63.998667 264.591821 63.998667 511.989334c0.021333 247.418845 200.571821 447.990667 448.012 447.990667C759.408179 959.98 959.98 759.408179 959.98 511.968001 959.98 264.570488 759.408179 64.02 512.010666 64.02L512.010666 64.02zM376.248161 376.248161l361.997792-90.515448-90.515448 361.997792-361.997792 90.515448L376.248161 376.248161 376.248161 376.248161zM665.26614 358.73386l-243.749589 62.761359-62.292036 243.280265 243.280265-62.292036L665.26614 358.73386 665.26614 358.73386zM481.824629 481.824629c16.639653-16.682319 43.689756-16.682319 60.32941 0 16.682319 16.639653 16.682319 43.689756 0 60.32941-16.639653 16.639653-43.689756 16.639653-60.32941 0C465.14231 525.514385 465.14231 498.485615 481.824629 481.824629L481.824629 481.824629z" /></svg>