<?xml version="1.0" standalone="no"?><!DOCTYPE svg PUBLIC "-//W3C//DTD SVG 1.1//EN" "http://www.w3.org/Graphics/SVG/1.1/DTD/svg11.dtd"><svg class="icon" width="200px" height="200.00px" viewBox="0 0 1024 1024" version="1.1" xmlns="http://www.w3.org/2000/svg"><path d="M833.828571 87.771429c32.270629 0 58.514286 26.243657 58.514286 58.514286l0 731.428571c0 32.270629-26.243657 58.514286-58.514286 58.514286L190.171429 936.228571c-32.270629 0-58.514286-26.243657-58.514286-58.514286L131.657143 146.285714c0-32.270629 26.243657-58.514286 58.514286-58.514286L833.828571 87.771429M833.828571 29.257143 190.171429 29.257143C125.5424 29.257143 73.142857 81.656686 73.142857 146.285714l0 731.428571c0 64.629029 52.399543 117.028571 117.028571 117.028571l643.657143 0c64.629029 0 117.028571-52.399543 117.028571-117.028571L950.857143 146.285714C950.857143 81.656686 898.4576 29.257143 833.828571 29.257143L833.828571 29.257143zM760.685714 277.942857l-468.114286 0c-16.149943 0-29.257143 13.1072-29.257143 29.257143s13.1072 29.257143 29.257143 29.257143l468.114286 0c16.149943 0 29.257143-13.1072 29.257143-29.257143S776.835657 277.942857 760.685714 277.942857L760.685714 277.942857zM760.685714 482.742857l-468.114286 0c-16.149943 0-29.257143 13.1072-29.257143 29.257143s13.1072 29.257143 29.257143 29.257143l468.114286 0c16.149943 0 29.257143-13.1072 29.257143-29.257143S776.835657 482.742857 760.685714 482.742857L760.685714 482.742857zM760.685714 687.542857l-468.114286 0c-16.149943 0-29.257143 13.1072-29.257143 29.257143s13.1072 29.257143 29.257143 29.257143l468.114286 0c16.149943 0 29.257143-13.1072 29.257143-29.257143S776.835657 687.542857 760.685714 687.542857L760.685714 687.542857z" /></svg>