<?xml version="1.0" standalone="no"?><!DOCTYPE svg PUBLIC "-//W3C//DTD SVG 1.1//EN" "http://www.w3.org/Graphics/SVG/1.1/DTD/svg11.dtd"><svg class="icon" width="200px" height="200.00px" viewBox="0 0 1024 1024" version="1.1" xmlns="http://www.w3.org/2000/svg"><path fill="#ffffff" d="M926.434217 395.630131c0-218.479972-177.306859-395.630131-396.139409-395.630131-218.754199 0-396.061058 177.150159-396.061058 395.630131 0 29.028808 3.134014 57.274111 9.049466 84.500861l-0.274226 0.07835c48.146295 216.246987 173.976969 403.190941 346.817858 530.196871 11.360802 8.540189 25.542217 13.593787 40.898887 13.593787 12.301006 0 23.818509-3.290715 33.808179-8.971116 4.30927-3.134014 8.579364-6.307204 12.849459-9.441218 167.983167-125.791499 290.875703-308.817935 339.178698-520.598952l-0.313401-0.039175C922.947626 456.234133 926.434217 426.304296 926.434217 395.630131zM530.294809 214.327403c100.249283 0 181.498604 81.170971 181.498604 181.263553 0 100.092582-81.249321 181.224377-181.498604 181.224377-100.170932 0-181.459428-81.131795-181.459428-181.224377C348.83538 295.498374 430.123876 214.327403 530.294809 214.327403z" /></svg>