<?xml version="1.0" standalone="no"?><!DOCTYPE svg PUBLIC "-//W3C//DTD SVG 1.1//EN" "http://www.w3.org/Graphics/SVG/1.1/DTD/svg11.dtd"><svg class="icon" width="200px" height="200.00px" viewBox="0 0 1024 1024" version="1.1" xmlns="http://www.w3.org/2000/svg"><path d="M647.610416 552.042507c83.286132-49.383118 138.682373-138.682373 138.682373-240.391215 0-154.162678-123.329982-277.364747-277.364747-277.364747-154.162678 0-277.364747 123.329982-277.364747 277.364747 0 101.708841 55.524155 191.13601 138.682373 240.391215C200.730801 610.509067 80.471137 770.812581 80.471137 958.878273c0 18.550623 12.281873 30.832496 30.832496 30.832496l801.389658 0c18.550623 0 30.832496-12.281873 30.832496-30.832496C940.455267 770.812581 817.125285 607.438549 647.610416 552.042507L647.610416 552.042507zM293.228287 311.523179c0-120.259664 95.568005-215.827669 215.827669-215.827669s215.827669 95.568005 215.827669 215.827669-95.568005 215.827669-215.827669 215.827669C388.668379 527.350848 293.228287 431.782843 293.228287 311.523179L293.228287 311.523179zM139.06561 928.045777c15.352191-191.13601 175.655905-339.029738 369.862433-339.029738s351.439524 148.021641 369.862233 339.029938L139.06561 928.045777 139.06561 928.045777z" /></svg>
